# xmcd
#
# Track frame offsets:
# 183
# 10128
# 19228
# 29165
# 42190
# 56063
# 68620
# 78980
# 90890
# 104110
# 116520
# 124728
# 137425
# 149735
# 160018
# 175815
# 186113
# 197890
# 210068
# 226585
#
# Disc length: 3181 seconds
#
#
# Revision: 0
# Processed by: cddbd v1.5.2PL0 Copyright (c) Steve Scherf et al.
# Submitted via: FreeRIP 2.30 
#
DISCID=080c6b14
DTITLE=Various Artist - More Louisiana Swamp Blues
DYEAR=1990
DGENRE=Blues
TTITLE0=Sylvester Buckley - She Treats Me So Evil
TTITLE1=Boogie Jake - I Don't Why
TTITLE2=Ramblin' Hi Harris - Trying To Call My Baby
TTITLE3=Silas Hogan - I'm A Free-Hearted Man
TTITLE4=Slim Harpo - Got Live If You Want It
TTITLE5=Lightning Slim - Stranger In Your Town
TTITLE6=Lonesome Sundown - Mojo Man
TTITLE7=Lazy Lester - Late Late In The Evening
TTITLE8=Mr Calhoun - Change Your Ways
TTITLE9=Mr Mojo - The World Loves A Lover
TTITLE10=Joe Mayfield - Natural Born Man
TTITLE11=Joe Rich - Dreaming Dreaming
TTITLE12=Jimmy Anderson - Draft Board Blues
TTITLE13=Whispering Smith - Crying Blues
TTITLE14=Joe Johnson - Dirty Woman Blues
TTITLE15=Henry Gray - Lucky Lucky Man
TTITLE16=Charles Sheffield - Shoo-Shoo Chicken
TTITLE17=Tabby Thomas - C.C. Rider
TTITLE18=Carol Fran - Runnin' And Hidin'
TTITLE19=Kat - You Can Have My Husband But Don't Mess With My Man
EXTD=
EXTT0=
EXTT1=
EXTT2=
EXTT3=
EXTT4=
EXTT5=
EXTT6=
EXTT7=
EXTT8=
EXTT9=
EXTT10=
EXTT11=
EXTT12=
EXTT13=
EXTT14=
EXTT15=
EXTT16=
EXTT17=
EXTT18=
EXTT19=
PLAYORDER=
